<svg xmlns="http://www.w3.org/2000/svg" viewBox="0 0 1240 920" font-family="'Cascadia Mono','Cascadia Code','JetBrains Mono','SF Mono',Menlo,monospace">
  <defs>
    <pattern id="grid" width="40" height="40" patternUnits="userSpaceOnUse">
      <path d="M 40 0 L 0 0 0 40" fill="none" stroke="#1a1a1a" stroke-width="0.5"/>
    </pattern>
    <pattern id="gridFine" width="8" height="8" patternUnits="userSpaceOnUse">
      <path d="M 8 0 L 0 0 0 8" fill="none" stroke="#141414" stroke-width="0.3"/>
    </pattern>
    <linearGradient id="edgeBand" x1="0" y1="0" x2="0" y2="1">
      <stop offset="0%"   stop-color="#f5a623" stop-opacity="0.10"/>
      <stop offset="50%"  stop-color="#f5a623" stop-opacity="0.05"/>
      <stop offset="100%" stop-color="#f5a623" stop-opacity="0.02"/>
    </linearGradient>
    <linearGradient id="edgeRule" x1="0" y1="0" x2="1" y2="0">
      <stop offset="0%"   stop-color="#f5a623" stop-opacity="0.2"/>
      <stop offset="10%"  stop-color="#f5a623" stop-opacity="1.0"/>
      <stop offset="90%"  stop-color="#f5a623" stop-opacity="1.0"/>
      <stop offset="100%" stop-color="#f5a623" stop-opacity="0.2"/>
    </linearGradient>
    <marker id="arrowAmber" markerWidth="9" markerHeight="9" refX="8" refY="4.5" orient="auto">
      <path d="M0,0 L9,4.5 L0,9 z" fill="#f5a623"/>
    </marker>
    <marker id="arrowBlue" markerWidth="9" markerHeight="9" refX="8" refY="4.5" orient="auto">
      <path d="M0,0 L9,4.5 L0,9 z" fill="#7eb3d9"/>
    </marker>
    <marker id="arrowDim" markerWidth="9" markerHeight="9" refX="8" refY="4.5" orient="auto">
      <path d="M0,0 L9,4.5 L0,9 z" fill="#3a5a78"/>
    </marker>
  </defs>

  <!-- BACKGROUND ===================================================== -->
  <rect width="1240" height="920" fill="#0d0d0d"/>
  <rect width="1240" height="920" fill="url(#gridFine)"/>
  <rect width="1240" height="920" fill="url(#grid)"/>

  <!-- TITLE BLOCK ==================================================== -->
  <text x="60" y="50" font-size="22" fill="#f5a623" font-weight="700" letter-spacing="2">HOMELAB</text>
  <text x="172" y="50" font-size="22" fill="#444" font-weight="300">/</text>
  <text x="190" y="50" font-size="22" fill="#e8e8e8" font-weight="300" letter-spacing="2">ARCHITECTURE</text>
  <text x="60" y="72" font-size="11" fill="#666" letter-spacing="1">UBUNTU 24.04 · DOCKER · ~50 SERVICES · ZERO INBOUND PORTS</text>

  <!-- corner registration marks (blueprint feel) -->
  <g stroke="#3a5a78" stroke-width="0.6" fill="none" stroke-opacity="0.4">
    <path d="M 30 30 L 30 50 M 30 30 L 50 30"/>
    <path d="M 1210 30 L 1210 50 M 1210 30 L 1190 30"/>
    <path d="M 30 890 L 30 870 M 30 890 L 50 890"/>
    <path d="M 1210 890 L 1210 870 M 1210 890 L 1190 890"/>
  </g>
  <text x="1200" y="50" font-size="9" fill="#3a5a78" text-anchor="end" letter-spacing="2">SHEET 01 / SCALE 1:1</text>

  <!-- ================================================================
       BAND 1 — INTERNET (top, narrow)
       ================================================================ -->
  <text x="42" y="155" font-size="11" fill="#5a8fb8" letter-spacing="3" transform="rotate(-90,42,155)">INTERNET</text>
  <line x1="80" y1="100" x2="80" y2="200" stroke="#5a8fb8" stroke-width="0.8" stroke-opacity="0.5"/>

  <g stroke="#5a8fb8" stroke-width="1" fill="none">
    <rect x="180" y="115" width="170" height="46" rx="2"/>
    <rect x="390" y="115" width="170" height="46" rx="2"/>
    <rect x="600" y="115" width="170" height="46" rx="2"/>
    <rect x="810" y="115" width="170" height="46" rx="2"/>
  </g>
  <g font-size="11" fill="#e8e8e8" text-anchor="middle">
    <text x="265" y="135">Web client</text>
    <text x="265" y="151" font-size="9" fill="#5a8fb8">browser · Google OAuth</text>
    <text x="475" y="135">iPhone</text>
    <text x="475" y="151" font-size="9" fill="#5a8fb8">ntfy push · APNs</text>
    <text x="685" y="135">Public DNS</text>
    <text x="685" y="151" font-size="9" fill="#5a8fb8">cloudflare resolvers</text>
    <text x="895" y="135">Mullvad exit</text>
    <text x="895" y="151" font-size="9" fill="#5a8fb8">wireguard endpoint</text>
  </g>

  <!-- ================================================================
       INGRESS RULE — heavy amber separator (Stil A loan)
       ================================================================ -->
  <line x1="60" y1="195" x2="1080" y2="195" stroke="url(#edgeRule)" stroke-width="3"/>
  <line x1="60" y1="201" x2="1080" y2="201" stroke="#f5a623" stroke-width="0.6" stroke-opacity="0.35"/>
  <text x="1090" y="200" font-size="9" fill="#f5a623" letter-spacing="2">↓ INGRESS</text>

  <!-- ================================================================
       BAND 2 — EDGE (heavy, amber gradient tint)
       ================================================================ -->
  <rect x="80" y="208" width="1000" height="150" fill="url(#edgeBand)"/>
  <rect x="80" y="208" width="1000" height="150" fill="none" stroke="#f5a623" stroke-width="0.4" stroke-opacity="0.35"/>

  <text x="42" y="288" font-size="14" fill="#f5a623" letter-spacing="4" font-weight="700" transform="rotate(-90,42,288)">EDGE</text>
  <text x="60" y="288" font-size="9" fill="#8a5e1f" letter-spacing="2" transform="rotate(-90,60,288)">PERIMETER</text>

  <g stroke="#f5a623" stroke-width="1.6" fill="none">
    <rect x="180" y="240" width="220" height="100" rx="3"/>
    <rect x="430" y="240" width="220" height="100" rx="3"/>
    <rect x="680" y="240" width="220" height="100" rx="3"/>
  </g>
  <!-- inner accent rules inside edge boxes -->
  <g stroke="#f5a623" stroke-width="0.6" stroke-opacity="0.4">
    <line x1="190" y1="266" x2="390" y2="266"/>
    <line x1="440" y1="266" x2="640" y2="266"/>
    <line x1="690" y1="266" x2="890" y2="266"/>
  </g>
  <g font-size="12" fill="#e8e8e8" text-anchor="middle">
    <text x="290" y="261" fill="#f5a623" font-weight="600" letter-spacing="2">CLOUDFLARE TUNNEL</text>
    <text x="290" y="287">cloudflared</text>
    <text x="290" y="305" font-size="10" fill="#aaa">outbound only · OAuth gate</text>
    <text x="290" y="324" font-size="9" fill="#5a8fb8">no public IP · zero forwards</text>

    <text x="540" y="261" fill="#f5a623" font-weight="600" letter-spacing="2">NGINX PROXY MGR</text>
    <text x="540" y="287">npm</text>
    <text x="540" y="305" font-size="10" fill="#aaa">TLS termination · LE wildcards</text>
    <text x="540" y="324" font-size="9" fill="#5a8fb8">:80 :443 :81</text>

    <text x="790" y="261" fill="#f5a623" font-weight="600" letter-spacing="2">UFW · FAIL2BAN</text>
    <text x="790" y="287">kernel + log defence</text>
    <text x="790" y="305" font-size="10" fill="#aaa">default-deny · brute-force ban</text>
    <text x="790" y="324" font-size="9" fill="#5a8fb8">ssh :2222 · key-only</text>
  </g>

  <!-- separator below EDGE -->
  <line x1="80" y1="372" x2="1080" y2="372" stroke="#5a8fb8" stroke-width="0.8" stroke-opacity="0.4"/>

  <!-- ================================================================
       BAND 3 — HOST (subdivided 3 columns)
       ================================================================ -->
  <text x="42" y="555" font-size="14" fill="#f5a623" letter-spacing="4" font-weight="700" transform="rotate(-90,42,555)">HOST</text>
  <text x="60" y="555" font-size="9" fill="#8a5e1f" letter-spacing="2" transform="rotate(-90,60,555)">DOCKER · 50 CONTAINERS</text>

  <!-- Detection sub-column header -->
  <text x="180" y="395" font-size="10" fill="#5a8fb8" letter-spacing="3" font-weight="600">DETECTION</text>
  <line x1="180" y1="402" x2="335" y2="402" stroke="#5a8fb8" stroke-width="0.6" stroke-opacity="0.5"/>
  <text x="335" y="395" font-size="8" fill="#3a5a78" text-anchor="end">7 sources</text>

  <g stroke="#5a8fb8" stroke-width="1" fill="none">
    <rect x="180" y="415" width="155" height="32" rx="2"/>
    <rect x="180" y="455" width="155" height="32" rx="2"/>
    <rect x="180" y="495" width="155" height="32" rx="2"/>
    <rect x="180" y="535" width="155" height="32" rx="2"/>
    <rect x="180" y="575" width="155" height="32" rx="2"/>
    <rect x="180" y="615" width="155" height="32" rx="2"/>
    <rect x="180" y="655" width="155" height="32" rx="2"/>
  </g>
  <g font-size="10" fill="#e8e8e8" text-anchor="middle">
    <text x="257" y="430">Suricata IDS</text>
    <text x="257" y="442" font-size="8" fill="#5a8fb8">af-packet · LAN tap</text>
    <text x="257" y="470">file-watcher</text>
    <text x="257" y="482" font-size="8" fill="#5a8fb8">inotify · sshd, sudoers</text>
    <text x="257" y="510">docker-events</text>
    <text x="257" y="522" font-size="8" fill="#5a8fb8">start · die · oom</text>
    <text x="257" y="550">npm-monitor</text>
    <text x="257" y="562" font-size="8" fill="#5a8fb8">scans · sqlmap · 401</text>
    <text x="257" y="590">PAM hooks</text>
    <text x="257" y="602" font-size="8" fill="#5a8fb8">ssh login · sudo</text>
    <text x="257" y="630">socket-proxy</text>
    <text x="257" y="642" font-size="8" fill="#5a8fb8">read-only docker API</text>
    <text x="257" y="670">ntfy shim</text>
    <text x="257" y="682" font-size="8" fill="#5a8fb8">~20 callers · bearer</text>
  </g>

  <!-- Apps sub-column header -->
  <text x="370" y="395" font-size="10" fill="#5a8fb8" letter-spacing="3" font-weight="600">APPLICATIONS</text>
  <line x1="370" y1="402" x2="775" y2="402" stroke="#5a8fb8" stroke-width="0.6" stroke-opacity="0.5"/>
  <text x="775" y="395" font-size="8" fill="#3a5a78" text-anchor="end">~40 services</text>

  <!-- 4 cols, 7 rows = 28 nodes (some merged for clarity) -->
  <g stroke="#5a8fb8" stroke-width="1" fill="none">
    <!-- row 1: media core -->
    <rect x="370" y="415" width="95" height="32" rx="2"/>
    <rect x="475" y="415" width="95" height="32" rx="2"/>
    <rect x="580" y="415" width="95" height="32" rx="2"/>
    <rect x="685" y="415" width="95" height="32" rx="2"/>
    <!-- row 2: arrs -->
    <rect x="370" y="455" width="95" height="32" rx="2"/>
    <rect x="475" y="455" width="95" height="32" rx="2"/>
    <rect x="580" y="455" width="95" height="32" rx="2"/>
    <rect x="685" y="455" width="95" height="32" rx="2"/>
    <!-- row 3: more arrs / media -->
    <rect x="370" y="495" width="95" height="32" rx="2"/>
    <rect x="475" y="495" width="95" height="32" rx="2"/>
    <rect x="580" y="495" width="95" height="32" rx="2"/>
    <rect x="685" y="495" width="95" height="32" rx="2"/>
    <!-- row 4: AI -->
    <rect x="370" y="535" width="95" height="32" rx="2"/>
    <rect x="475" y="535" width="95" height="32" rx="2"/>
    <rect x="580" y="535" width="95" height="32" rx="2"/>
    <rect x="685" y="535" width="95" height="32" rx="2"/>
    <!-- row 5: dns/network/dashboard -->
    <rect x="370" y="575" width="95" height="32" rx="2"/>
    <rect x="475" y="575" width="95" height="32" rx="2"/>
    <rect x="580" y="575" width="95" height="32" rx="2"/>
    <rect x="685" y="575" width="95" height="32" rx="2"/>
    <!-- row 6: utility -->
    <rect x="370" y="615" width="95" height="32" rx="2"/>
    <rect x="475" y="615" width="95" height="32" rx="2"/>
    <rect x="580" y="615" width="95" height="32" rx="2"/>
    <!-- qBittorrent: amber dashed (VPN-bound) -->
    <!-- row 7: docker mgmt + glance -->
    <rect x="370" y="655" width="95" height="32" rx="2"/>
    <rect x="475" y="655" width="95" height="32" rx="2"/>
    <rect x="580" y="655" width="95" height="32" rx="2"/>
    <rect x="685" y="655" width="95" height="32" rx="2"/>
  </g>
  <!-- qBittorrent special -->
  <rect x="685" y="615" width="95" height="32" rx="2" fill="none" stroke="#f5a623" stroke-width="1.4" stroke-dasharray="4,2"/>

  <g font-size="10" fill="#e8e8e8" text-anchor="middle">
    <text x="417" y="435">Plex</text>
    <text x="522" y="435">Immich</text>
    <text x="627" y="435">Nextcloud</text>
    <text x="732" y="435">Audiobookshelf</text>

    <text x="417" y="475">Sonarr</text>
    <text x="522" y="475">Radarr</text>
    <text x="627" y="475">Lidarr</text>
    <text x="732" y="475">Bazarr</text>

    <text x="417" y="515">Prowlarr</text>
    <text x="522" y="515">Tdarr</text>
    <text x="627" y="515">Seerr</text>
    <text x="732" y="515">FlareSolverr</text>

    <text x="417" y="555">Ollama</text>
    <text x="522" y="555">Open-WebUI</text>
    <text x="627" y="555">Whisper</text>
    <text x="732" y="555">Homepage</text>

    <text x="417" y="595">AdGuard</text>
    <text x="522" y="595">ntfy</text>
    <text x="627" y="595">Miniflux</text>
    <text x="732" y="595">UniFi</text>

    <text x="417" y="635">IT-Tools</text>
    <text x="522" y="635">draw.io</text>
    <text x="627" y="635">netmap</text>
    <text x="732" y="635" fill="#f5a623" font-weight="600">qBittorrent</text>

    <text x="417" y="675">Portainer</text>
    <text x="522" y="675">Dozzle</text>
    <text x="627" y="675">Watchtower</text>
    <text x="732" y="675">Glance ×4</text>
  </g>

  <!-- Observability sub-column header -->
  <text x="810" y="395" font-size="10" fill="#5a8fb8" letter-spacing="3" font-weight="600">OBSERVABILITY</text>
  <line x1="810" y1="402" x2="1010" y2="402" stroke="#5a8fb8" stroke-width="0.6" stroke-opacity="0.5"/>
  <text x="1010" y="395" font-size="8" fill="#3a5a78" text-anchor="end">3 layers</text>

  <g stroke="#5a8fb8" stroke-width="1" fill="none">
    <rect x="810" y="415" width="200" height="32" rx="2"/>
    <rect x="810" y="455" width="200" height="32" rx="2"/>
    <rect x="810" y="495" width="200" height="32" rx="2"/>
    <rect x="810" y="535" width="200" height="32" rx="2"/>
    <rect x="810" y="575" width="200" height="32" rx="2"/>
    <rect x="810" y="615" width="200" height="32" rx="2"/>
    <rect x="810" y="655" width="200" height="32" rx="2"/>
  </g>
  <g font-size="10" fill="#e8e8e8" text-anchor="middle">
    <text x="910" y="435">Prometheus</text>
    <text x="910" y="445" font-size="8" fill="#5a8fb8">90 d retention · 15 s scrape</text>
    <text x="910" y="475">Grafana</text>
    <text x="910" y="485" font-size="8" fill="#5a8fb8">power · cost · trends</text>
    <text x="910" y="515">Scaphandre</text>
    <text x="910" y="525" font-size="8" fill="#5a8fb8">Intel RAPL · CPU+RAM watts</text>
    <text x="910" y="555">nvidia-gpu-exporter</text>
    <text x="910" y="565" font-size="8" fill="#5a8fb8">GPU watts · temp · VRAM</text>
    <text x="910" y="595">node + cAdvisor</text>
    <text x="910" y="605" font-size="8" fill="#5a8fb8">host + per-container</text>
    <text x="910" y="635">Glances · Scrutiny</text>
    <text x="910" y="645" font-size="8" fill="#5a8fb8">live stats · SMART</text>
    <text x="910" y="675">healthcheck.sh</text>
    <text x="910" y="685" font-size="8" fill="#5a8fb8">cron 15 m · safety net</text>
  </g>

  <!-- separator before storage -->
  <line x1="80" y1="715" x2="1080" y2="715" stroke="#5a8fb8" stroke-width="0.8" stroke-opacity="0.4"/>

  <!-- ================================================================
       BAND 4 — STORAGE
       ================================================================ -->
  <text x="42" y="785" font-size="11" fill="#5a8fb8" letter-spacing="3" transform="rotate(-90,42,785)">STORAGE</text>
  <line x1="80" y1="730" x2="80" y2="850" stroke="#5a8fb8" stroke-width="0.8" stroke-opacity="0.5"/>

  <g stroke="#5a8fb8" stroke-width="1" fill="none">
    <rect x="180" y="740" width="270" height="70" rx="2"/>
    <rect x="475" y="740" width="270" height="70" rx="2"/>
    <rect x="770" y="740" width="270" height="70" rx="2"/>
  </g>
  <g font-size="11" fill="#e8e8e8" text-anchor="middle">
    <text x="315" y="765" font-weight="600">NVMe 500 GB</text>
    <text x="315" y="783" font-size="9" fill="#5a8fb8">system · ${APPDATA_DIR}</text>
    <text x="315" y="797" font-size="9" fill="#5a8fb8">postgres · redis · configs</text>

    <text x="610" y="765" font-weight="600">HDD 4 TB</text>
    <text x="610" y="783" font-size="9" fill="#5a8fb8">${MEDIA_DIR}</text>
    <text x="610" y="797" font-size="9" fill="#5a8fb8">plex library · downloads</text>

    <text x="905" y="765" font-weight="600">HDD 4 TB</text>
    <text x="905" y="783" font-size="9" fill="#5a8fb8">${STORAGE_DIR}</text>
    <text x="905" y="797" font-size="9" fill="#5a8fb8">nextcloud · backups · immich</text>
  </g>

  <!-- ================================================================
       VPN SIDOLINE — parallel right edge
       ================================================================ -->
  <g id="vpn">
    <!-- two dashed rails forming a "tunnel" -->
    <line x1="1108" y1="100" x2="1108" y2="850" stroke="#f5a623" stroke-width="0.7" stroke-dasharray="3,3" stroke-opacity="0.55"/>
    <line x1="1172" y1="100" x2="1172" y2="850" stroke="#f5a623" stroke-width="0.7" stroke-dasharray="3,3" stroke-opacity="0.55"/>

    <!-- rotated tunnel label -->
    <text x="1140" y="475" font-size="11" fill="#f5a623" letter-spacing="6" font-weight="700" text-anchor="middle" transform="rotate(-90,1140,475)">WIREGUARD TUNNEL</text>
    <text x="1156" y="475" font-size="8" fill="#8a5e1f" letter-spacing="2" text-anchor="middle" transform="rotate(-90,1156,475)">SEPARATE TRUST DOMAIN</text>

    <!-- mullvad endpoint at top -->
    <rect x="1108" y="115" width="64" height="46" rx="2" fill="none" stroke="#f5a623" stroke-width="1"/>
    <text x="1140" y="134" font-size="9" fill="#f5a623" text-anchor="middle" font-weight="600">MULLVAD</text>
    <text x="1140" y="148" font-size="8" fill="#aaa" text-anchor="middle">wg0-mullvad</text>
    <text x="1140" y="158" font-size="7" fill="#5a8fb8" text-anchor="middle">lockdown mode</text>

    <!-- killswitch box at bottom -->
    <rect x="1108" y="740" width="64" height="70" rx="2" fill="none" stroke="#f5a623" stroke-width="1" stroke-dasharray="3,2"/>
    <text x="1140" y="762" font-size="9" fill="#f5a623" text-anchor="middle" font-weight="600">KILL-</text>
    <text x="1140" y="775" font-size="9" fill="#f5a623" text-anchor="middle" font-weight="600">SWITCH</text>
    <text x="1140" y="793" font-size="7" fill="#aaa" text-anchor="middle">iptables OUTPUT</text>
    <text x="1140" y="803" font-size="7" fill="#5a8fb8" text-anchor="middle">drop != wg0</text>
  </g>

  <!-- ================================================================
       FLOW ARROWS — control plane (2px amber)
       ================================================================ -->
  <g stroke="#f5a623" stroke-width="2" fill="none">
    <!-- web client → NPM -->
    <path d="M 265 161 L 265 180 L 540 180 L 540 240" marker-end="url(#arrowAmber)"/>
    <!-- iPhone push (down-left into ntfy via NPM) -->
    <!-- DNS public → cloudflared (cloudflare tunnel) -->
    <path d="M 685 161 L 685 180 L 290 180 L 290 240" marker-end="url(#arrowAmber)"/>
    <!-- NPM → apps -->
    <path d="M 540 340 L 540 372 L 540 415" marker-end="url(#arrowAmber)"/>
  </g>

  <!-- ================================================================
       FLOW ARROWS — data / observability (1px blue dashed)
       ================================================================ -->
  <g stroke="#7eb3d9" stroke-width="1.2" stroke-dasharray="4,3" fill="none">
    <!-- detection → ntfy → iPhone -->
    <path d="M 335 590 L 522 590 L 522 595" stroke-opacity="0.7"/>
    <path d="M 522 575 L 522 360 L 475 360 L 475 161" marker-end="url(#arrowBlue)" stroke-opacity="0.85"/>
    <!-- observability scrapes apps -->
    <path d="M 810 470 L 780 470" marker-end="url(#arrowBlue)"/>
    <path d="M 810 510 L 780 510" marker-end="url(#arrowBlue)"/>
    <path d="M 810 555 L 780 555" marker-end="url(#arrowBlue)"/>
    <!-- apps → storage -->
    <path d="M 475 687 L 475 740" marker-end="url(#arrowBlue)" stroke-opacity="0.85"/>
    <path d="M 627 687 L 627 740" marker-end="url(#arrowBlue)" stroke-opacity="0.85"/>
    <path d="M 905 687 L 905 730 L 905 740" marker-end="url(#arrowBlue)" stroke-opacity="0.7"/>
  </g>

  <!-- ================================================================
       VPN ARROWS — amber dashed, only into qBittorrent
       ================================================================ -->
  <g stroke="#f5a623" stroke-width="1.5" stroke-dasharray="5,2" fill="none">
    <!-- mullvad endpoint (internet band) → tunnel rail top -->
    <path d="M 980 138 L 1108 138" marker-end="url(#arrowAmber)" stroke-opacity="0.8"/>
    <!-- tunnel → qBittorrent — orthogonal route around Observability column
         (down through gap x=1010-1108, left under row 7, up through gap x=780-810) -->
    <path d="M 1108 631 L 1080 631 L 1080 700 L 795 700 L 795 631 L 780 631" marker-end="url(#arrowAmber)"/>
  </g>
  <text x="937" y="694" font-size="8" fill="#f5a623" text-anchor="middle" letter-spacing="1">torrent traffic only · :6881</text>
  <text x="1042" y="132" font-size="8" fill="#f5a623" text-anchor="middle" letter-spacing="1">handshake</text>

  <!-- ================================================================
       LEGEND
       ================================================================ -->
  <g id="legend" transform="translate(60, 870)">
    <text x="0" y="0" font-size="9" fill="#666" letter-spacing="3">LEGEND</text>

    <line x1="0" y1="20" x2="34" y2="20" stroke="#f5a623" stroke-width="2"/>
    <text x="42" y="24" font-size="9" fill="#aaa">control / ingress</text>

    <line x1="180" y1="20" x2="214" y2="20" stroke="#7eb3d9" stroke-width="1.2" stroke-dasharray="4,3"/>
    <text x="222" y="24" font-size="9" fill="#aaa">data / metrics</text>

    <line x1="350" y1="20" x2="384" y2="20" stroke="#f5a623" stroke-width="1.5" stroke-dasharray="5,2"/>
    <text x="392" y="24" font-size="9" fill="#aaa">VPN-bound</text>

    <rect x="500" y="13" width="14" height="14" fill="none" stroke="#f5a623" stroke-width="1.5"/>
    <text x="520" y="24" font-size="9" fill="#aaa">edge component</text>

    <rect x="650" y="13" width="14" height="14" fill="none" stroke="#5a8fb8" stroke-width="1"/>
    <text x="670" y="24" font-size="9" fill="#aaa">internal service</text>

    <rect x="790" y="13" width="14" height="14" fill="none" stroke="#f5a623" stroke-width="1.4" stroke-dasharray="4,2"/>
    <text x="810" y="24" font-size="9" fill="#aaa">VPN-isolated container</text>
  </g>

</svg>
